<svg xmlns="http://www.w3.org/2000/svg" style="display: none;">
  <symbol id="icon-windows" viewBox="0 0 24 24">
    <path d="M0,3.449L9.75,2.1v9.45H0V3.449z M10.949,1.949L24,0v11.4H10.949V1.949z M0,12.6h9.75v9.45L0,20.699V12.6z M10.949,12.6H24V24l-12.9-1.801L10.949,12.6z"/>
  </symbol>
  <symbol id="icon-android" viewBox="0 0 24 24">
    <path d="M6.002 2.28v2.173c-1.798.536-3.01 2.18-3.01 4.109v8.685c0 .584.521 1.057 1.166 1.057.644 0 1.166-.473 1.166-1.057V8.562c0-1.315 1.09-2.383 2.43-2.383h8.518c1.34 0 2.428 1.068 2.428 2.383v8.685c0 .584.522 1.057 1.166 1.057.644 0 1.166-.473 1.166-1.057V8.562c0-1.929-1.212-3.573-3.01-4.11V2.281c0-.584-.523-1.057-1.166-1.057s-1.166.473-1.166 1.057v1.86h-7.756V2.281c0-.584-.522-1.057-1.166-1.057s-1.166.473-1.166 1.057zM9.38 14.846a1.166 1.166 0 0 0-1.643 0 1.166 1.166 0 0 0 0 1.654c.227.227.522.341.822.341.3 0 .596-.114.822-.34a1.166 1.166 0 0 0 0-1.655zm5.26 0a1.166 1.166 0 0 0-1.643 0 1.166 1.166 0 0 0 0 1.654c.227.227.522.341.822.341.3 0 .596-.114.822-.34a1.166 1.166 0 0 0 0-1.655z"/>
  </symbol>
</svg>